HIERARCHY
ROOT hip
{
  OFFSET 0 0 0
  CHANNELS 6 Xposition Yposition Zposition Zrotation Yrotation Xrotation
  JOINT abdomen
  {
    OFFSET 0 20.6881 -0.73152
    CHANNELS 3 Zrotation Xrotation Yrotation
    JOINT chest
    {
      OFFSET 0 11.7043 -0.48768
      CHANNELS 3 Zrotation Xrotation Yrotation
      JOINT neck
      {
        OFFSET 0 22.1894 -2.19456
        CHANNELS 3 Zrotation Xrotation Yrotation
        JOINT head
        {
          OFFSET -0.24384 7.07133 1.2192
          CHANNELS 3 Zrotation Xrotation Yrotation
          JOINT leftEye
          {
            OFFSET 4.14528 8.04674 8.04672
            CHANNELS 3 Zrotation Xrotation Yrotation
            End Site
            {
              OFFSET 1 0 0
            }
          }
          JOINT rightEye
          {
            OFFSET -3.6576 8.04674 8.04672
            CHANNELS 3 Zrotation Xrotation Yrotation
            End Site
            {
              OFFSET 1 0 0
            }
          }
        }
      }
      JOINT rCollar
      {
        OFFSET -2.68224 19.2634 -4.8768
        CHANNELS 3 Zrotation Xrotation Yrotation
        JOINT rShldr
        {
          OFFSET -8.77824 -1.95073 1.46304
          CHANNELS 3 Zrotation Xrotation Yrotation
          JOINT rForeArm
          {
            OFFSET -28.1742 -1.7115 0.48768
            CHANNELS 3 Zrotation Xrotation Yrotation
            JOINT rHand
            {
              OFFSET -22.5879 0.773209 7.07136
              CHANNELS 3 Zrotation Xrotation Yrotation
              JOINT rThumb1
              {
                OFFSET -1.2192 -0.487915 3.41376
                CHANNELS 3 Zrotation Xrotation Yrotation
                JOINT rThumb2
                {
                  OFFSET -3.37035 -0.52449 3.41376
                  CHANNELS 3 Zrotation Xrotation Yrotation
                  End Site
                  {
                    OFFSET -1.78271 -1.18214 1.43049
                  }
                }
              }
              JOINT rIndex1
              {
                OFFSET -7.75947 0.938293 5.60832
                CHANNELS 3 Zrotation Xrotation Yrotation
                JOINT rIndex2
                {
                  OFFSET -2.54057 -0.884171 1.56538
                  CHANNELS 3 Zrotation Xrotation Yrotation
                  End Site
                  {
                    OFFSET -1.62519 -0.234802 1.16502
                  }
                }
              }
              JOINT rMid1
              {
                OFFSET -8.24714 1.18213 3.41376
                CHANNELS 3 Zrotation Xrotation Yrotation
                JOINT rMid2
                {
                  OFFSET -3.10165 -0.590103 1.0647
                  CHANNELS 3 Zrotation Xrotation Yrotation
                  End Site
                  {
                    OFFSET -2.48547 -0.328903 0.83742
                  }
                }
              }
              JOINT rRing1
              {
                OFFSET -8.82822 0.546677 1.51678
                CHANNELS 3 Zrotation Xrotation Yrotation
                JOINT rRing2
                {
                  OFFSET -2.60934 -0.819778 -0.0198488
                  CHANNELS 3 Zrotation Xrotation Yrotation
                  End Site
                  {
                    OFFSET -2.33842 -0.294052 0.168128
                  }
                }
              }
              JOINT rPinky1
              {
                OFFSET -8.27202 -0.0477905 -0.4584
                CHANNELS 3 Zrotation Xrotation Yrotation
                JOINT rPinky2
                {
                  OFFSET -1.82734 -0.647385 -0.700984
                  CHANNELS 3 Zrotation Xrotation Yrotation
                  End Site
                  {
                    OFFSET -1.69225 -0.51767 -0.607171
                  }
                }
              }
            }
          }
        }
      }
      JOINT lCollar
      {
        OFFSET 2.68224 19.2634 -4.8768
        CHANNELS 3 Zrotation Xrotation Yrotation
        JOINT lShldr
        {
          OFFSET 8.77824 -1.95073 1.46304
          CHANNELS 3 Zrotation Xrotation Yrotation
          JOINT lForeArm
          {
            OFFSET 28.1742 -1.7115 0.48768
            CHANNELS 3 Zrotation Xrotation Yrotation
            JOINT lHand
            {
              OFFSET 22.5879 0.773209 7.07136
              CHANNELS 3 Zrotation Xrotation Yrotation
              JOINT lThumb1
              {
                OFFSET 1.2192 -0.487915 3.41376
                CHANNELS 3 Zrotation Xrotation Yrotation
                JOINT lThumb2
                {
                  OFFSET 3.37035 -0.52449 3.41376
                  CHANNELS 3 Zrotation Xrotation Yrotation
                  End Site
                  {
                    OFFSET 1.78271 -1.18214 1.43049
                  }
                }
              }
              JOINT lIndex1
              {
                OFFSET 7.75947 0.938293 5.60832
                CHANNELS 3 Zrotation Xrotation Yrotation
                JOINT lIndex2
                {
                  OFFSET 2.54057 -0.884171 1.56538
                  CHANNELS 3 Zrotation Xrotation Yrotation
                  End Site
                  {
                    OFFSET 1.62519 -0.234802 1.16502
                  }
                }
              }
              JOINT lMid1
              {
                OFFSET 8.24714 1.18213 3.41376
                CHANNELS 3 Zrotation Xrotation Yrotation
                JOINT lMid2
                {
                  OFFSET 3.10165 -0.590103 1.0647
                  CHANNELS 3 Zrotation Xrotation Yrotation
                  End Site
                  {
                    OFFSET 2.48547 -0.328903 0.83742
                  }
                }
              }
              JOINT lRing1
              {
                OFFSET 8.82822 0.546677 1.51678
                CHANNELS 3 Zrotation Xrotation Yrotation
                JOINT lRing2
                {
                  OFFSET 2.60934 -0.819778 -0.0198488
                  CHANNELS 3 Zrotation Xrotation Yrotation
                  End Site
                  {
                    OFFSET 2.33842 -0.294052 0.168128
                  }
                }
              }
              JOINT lPinky1
              {
                OFFSET 8.27202 -0.0477905 -0.4584
                CHANNELS 3 Zrotation Xrotation Yrotation
                JOINT lPinky2
                {
                  OFFSET 1.82734 -0.647385 -0.700984
                  CHANNELS 3 Zrotation Xrotation Yrotation
                  End Site
                  {
                    OFFSET 1.69225 -0.51767 -0.607171
                  }
                }
              }
            }
          }
        }
      }
    }
  }
  JOINT rButtock
  {
    OFFSET -8.77824 4.35084 1.2192
    CHANNELS 3 Zrotation Xrotation Yrotation
    JOINT rThigh
    {
      OFFSET 0 -1.70687 -2.19456
      CHANNELS 3 Zrotation Xrotation Yrotation
      JOINT rShin
      {
        OFFSET 0 -36.8199 0.73152
        CHANNELS 3 Zrotation Xrotation Yrotation
        JOINT rFoot
        {
          OFFSET 0.73152 -45.1104 -5.12064
          CHANNELS 3 Zrotation Xrotation Yrotation
          End Site
          {
            OFFSET -1.1221 -3.69964 12.103
          }
        }
      }
    }
  }
  JOINT lButtock
  {
    OFFSET 8.77824 4.35084 1.2192
    CHANNELS 3 Zrotation Xrotation Yrotation
    JOINT lThigh
    {
      OFFSET 0 -1.70687 -2.19456
      CHANNELS 3 Zrotation Xrotation Yrotation
      JOINT lShin
      {
        OFFSET 0 -36.8199 0.73152
        CHANNELS 3 Zrotation Xrotation Yrotation
        JOINT lFoot
        {
          OFFSET -0.73152 -45.1104 -5.12064
          CHANNELS 3 Zrotation Xrotation Yrotation
          End Site
          {
            OFFSET 1.1221 -3.69964 12.103
          }
        }
      }
    }
  }
}
MOTION
Frames:	5
Frame Time:	0.03333
65.8727 44.792300000000004 -34.005 -0.459283 34.601131 6.184001 -3.672694 14.874056 -102.792824 12.540477 0.531699 122.170812 -10.95969 26.116007 -94.591958 23.724329 16.27032 135.768101 -18.385248 -2.608843 16.018264 -12.681595 -0.951012 8.542618 5.776765 -44.524016 -3.896511 58.468687 22.702849 -22.502645 158.85106 -26.262357 23.877952 169.378524 -7.270001 146.43507 -166.061487 -2.737493 84.815755 139.957207 -31.698301 94.173332 14.177277 -14.107378 -4.830906 -8.113158 -2.493426 4.957123 -164.630027 -80.160245 160.375614 88.427504 -73.301197 61.501181 -32.299692 -57.51153 -33.956321 -67.577936 -72.916387 -98.676093 -148.248259 -32.444389 -131.883525 -174.884252 11.524697 -139.885935 -3.598595 -14.06494 7.87767 -54.462538 6.702641 -12.958239 90.684963 -36.15337 -60.047387 -142.335155 -78.888167 -121.781517 99.697282 35.813911 -62.576338 138.010786 -21.030233 -72.177027 127.024746 -13.632509 -116.945561 172.389478 -55.699362 -101.505478 170.055832 -13.371983 -146.319867 0.777865 0.293995 3.008866 146.498759 -1.155067 178.074216 102.822685 -62.358645 123.690927 22.991666 -43.614941 11.013451 136.570785 -13.139141 101.994041 -114.936247 66.632168 -37.533797 110.906207 -15.707396 67.616367 109.611505 42.185738 90.983803 -118.279995 24.443015 -148.430115 -22.694854 7.457195 -23.872095 101.228764 -33.648263 -180.0 99.446634 -35.162947 8.940656 -172.775249 -18.003108 90.074825
66.2169 43.884699999999995 -35.0164 -0.70369 35.034859 6.265553 -3.178788 14.581226 -99.638164 12.880555 -0.463857 119.5597 -8.73779 16.941293 -37.105177 19.092125 -4.538531 80.416999 -20.406187 -3.198067 17.63272 -13.789478 -1.251552 10.322636 -142.723195 38.228861 144.49614 -32.428877 -11.149978 32.539878 -119.566547 -2.964461 -37.871047 18.242493 -34.088761 10.156039 -177.666609 -12.210894 85.397204 -87.600047 8.68858 19.842207 -130.567207 9.204956 115.506776 -136.711497 20.198132 126.946001 1.981948 6.361072 -7.324727 -164.336335 8.336678 143.768215 -155.287335 -23.34345 -168.600398 4.570671 30.097824 -12.141469 -144.055805 -40.192257 -128.33391 -95.873066 -49.81671 -67.657123 77.272733 72.527219 -82.749976 -172.107637 1.995159 -129.121902 -121.31268 30.474727 -14.11238 51.559845 54.008735 -31.491675 78.173939 39.531853 -46.597855 127.687639 -23.300791 -75.925351 20.808304 34.57726 -34.309017 -4.461972 6.573543 22.581394 169.092044 -6.740212 -146.74411 -7.225588 -33.197804 5.445371 147.542886 0.570721 178.337435 -91.801532 80.946627 78.923994 154.865064 29.458448 157.822499 -2.11332 -3.891657 -31.225067 9.787543 1.619791 0.0 -82.795628 -39.745114 -85.379329 -105.947841 58.565332 30.862436 63.020883 42.072781 43.837212 24.777685 1.874995 12.01468 39.946251 -66.633253 -36.032135 -95.772435 2.6678 13.477041 176.0611 -63.074556 -100.674019
66.4558 42.5672 -36.066199999999995 -1.389439 32.574565 6.717299 -2.521476 13.913519 -86.824616 12.462199 -3.401176 107.29816 10.2901 21.540226 83.542728 -20.898445 4.118411 -42.081145 -20.707598 -2.191413 11.952464 -12.218014 -2.086256 19.309869 -84.330563 66.99451 86.082692 -96.134823 30.382066 90.993118 7.013846 9.857045 -141.013209 162.29307 -26.401688 141.787473 -172.06738 -4.406726 85.881005 -159.781687 11.368964 78.193037 -158.699172 -47.446962 126.005351 -163.604628 -48.612542 103.348641 -82.589344 69.534396 73.56429 -160.847684 -5.043425 144.604858 -10.796047 -0.874094 -2.038963 -134.174595 61.565344 159.258133 -12.824168 41.741127 27.1679 -129.284668 51.186184 -150.550222 152.354433 11.926948 -162.519832 124.204521 86.393796 -89.332862 -69.132249 74.563351 -46.211321 14.43624 0.69737 1.997973 9.375304 15.99518 -3.84782 11.236882 14.45397 -27.24038 21.592468 37.287134 -32.691084 161.792193 -3.546657 -128.403054 4.929818 -2.277918 1.918823 4.030349 21.151407 -7.62986 3.046127 -1.056763 -1.044182 -9.919287 0.264718 -6.802142 157.364966 0.967359 149.094836 32.303224 38.540833 -45.065106 -19.760014 6.977382 -21.053717 -45.077028 -59.381026 -0.0 101.862724 34.37537 -20.066143 -153.297256 -80.017358 132.777982 113.688954 56.994032 46.086329 -117.698618 -23.508789 -101.827372 -95.090016 5.366076 59.820365 40.065998 -3.553339 22.807462
66.66159999999999 41.1319 -37.0593 -1.784534 31.400164 7.056729 -5.479443 15.152731 20.152313 -4.436805 -13.447819 0.669068 9.569683 26.290353 110.600646 -22.489541 14.141951 -67.455279 -20.29002 -2.469528 13.736997 -16.178014 -3.221149 22.381116 -14.763429 42.724331 15.577775 -158.621581 -26.033546 126.513772 -98.414808 41.090419 -129.476458 10.234405 -18.790482 5.442717 -14.118389 6.691801 5.764583 -107.416826 -10.761326 102.153381 12.973036 -17.219806 -6.528059 -2.07258 -5.38088 4.532332 -165.235174 -17.220342 153.770226 -171.016474 -13.033437 141.931734 -156.723121 -11.56074 -173.504745 -4.091479 63.178849 2.270927 -9.375234 16.704856 16.906324 21.004625 -6.961152 -16.559456 85.256292 71.561336 -89.131177 24.329221 2.482433 -50.89089 -104.862934 -45.647312 125.110281 29.862144 34.807498 -11.364351 -4.492442 2.639725 0.476914 134.948982 -65.437887 -126.458213 153.810478 -47.946559 -120.981484 145.194766 -3.063933 -107.722838 149.788372 35.275539 -131.410689 9.468711 22.973792 -4.959494 148.507552 7.469468 -175.255614 6.654718 -61.594563 26.050143 13.057283 34.665335 -14.72406 97.084572 -21.606283 128.887922 -119.741716 69.117859 -36.4301 113.046241 -18.073379 97.518581 99.35353 8.764128 -46.200818 123.28431 -58.384255 40.199066 -16.638741 5.350668 -17.533474 108.530288 -37.733077 -62.580828 -109.06005 -47.998663 -2.791324 25.018692 -21.503681 77.519256
66.8328 39.969 -37.9343 -2.029724 30.851014 7.166948 -4.297309 14.930434 -0.0 -0.500646 -14.024679 21.625133 -4.722229 34.046146 -152.248177 8.405106 34.256783 -166.556036 -20.067191 -3.039896 17.058095 -20.308348 -3.756467 20.751465 2.169121 -26.273007 -6.379898 56.340966 11.740887 -2.982337 152.42124 -17.862143 20.478019 172.858582 1.657936 148.033319 -97.005237 34.517523 51.616083 -82.248752 -7.4838 56.284654 -159.597792 -38.19627 124.757502 -141.696951 -8.31698 113.359094 -30.957325 56.513252 17.456696 -157.621599 -5.709751 139.948422 -13.952938 24.991435 6.319854 -67.84669 77.656438 94.853916 -140.5814 -33.998038 -132.568103 -14.789045 50.991667 17.239122 7.602589 35.543047 -8.022768 86.739034 28.900236 -117.531846 98.360661 33.417603 100.574194 -137.371181 -80.370668 -118.829766 155.302808 0.973724 -89.663954 87.843556 -1.702009 -23.146576 149.052138 -36.692218 -121.329603 160.002912 -22.53704 -109.573529 115.455974 59.849853 -99.944504 56.056054 60.717017 -46.048489 148.273788 5.961078 -176.459689 153.260213 -28.419434 176.29796 82.853205 -52.274038 59.779226 135.970584 -15.457166 103.937439 -121.772618 69.799699 -35.661773 115.558656 -19.213091 -152.683326 -166.822643 -65.29576 -149.716201 36.973554 26.180148 155.371857 132.092118 68.321138 36.789673 -131.404586 -20.310859 22.614168 118.470905 53.73677 138.898374 165.721948 88.987705 -64.392019
